<?xml version="1.0" standalone="no"?>
<!DOCTYPE svg PUBLIC "-//W3C//DTD SVG 20010904//EN"
 "http://www.w3.org/TR/2001/REC-SVG-20010904/DTD/svg10.dtd">
<svg version="1.0" xmlns="http://www.w3.org/2000/svg"
 width="200.000000pt" height="200.000000pt" viewBox="0 0 200.000000 200.000000"
 preserveAspectRatio="xMidYMid meet">

<g transform="translate(0.000000,200.000000) scale(0.100000,-0.100000)"
fill="#000000" stroke="none">
<path d="M777 1616 c-60 -16 -66 -22 -28 -31 47 -10 45 -21 -7 -42 -26 -11
-68 -36 -94 -56 -51 -39 -64 -33 -42 21 7 17 11 32 8 32 -3 0 -30 -23 -60 -51
-55 -53 -70 -78 -35 -59 11 5 31 10 45 10 l26 0 -35 -48 c-18 -26 -43 -70 -55
-97 -23 -54 -35 -52 -48 10 l-9 40 -15 -35 c-18 -43 -42 -139 -36 -146 3 -2
17 11 32 31 40 52 53 46 46 -20 -3 -30 -3 -55 1 -55 4 0 19 15 34 33 48 56 51
54 51 -39 -1 -46 -3 -84 -6 -84 -3 0 -22 19 -43 42 l-38 43 4 -52 c5 -65 -8
-69 -53 -15 l-31 37 5 -55 c10 -100 56 -199 56 -121 0 35 16 81 28 81 4 0 15
-18 23 -41 17 -47 33 -55 37 -19 2 14 8 40 14 58 l10 34 25 -54 c13 -29 34
-63 45 -75 31 -33 15 -39 -43 -19 -27 10 -52 16 -55 14 -2 -3 10 -22 27 -44
l31 -39 -25 -3 c-14 -2 -39 4 -56 12 -35 18 -41 19 -41 7 0 -25 146 -169 158
-156 3 2 -3 22 -12 43 -10 22 -16 50 -14 62 l3 23 32 -27 c18 -15 37 -26 42
-24 5 1 2 24 -7 51 -18 56 -11 69 21 39 12 -11 44 -31 70 -42 26 -12 45 -25
42 -29 -2 -5 -27 -11 -55 -15 -60 -8 -61 -22 -5 -44 22 -8 42 -17 45 -19 12
-11 -37 -33 -71 -33 -21 0 -40 -4 -43 -9 -7 -10 74 -47 127 -56 20 -4 37 -11
37 -15 0 -4 -18 -15 -40 -24 -22 -9 -40 -20 -40 -26 0 -13 10 -12 40 5 14 8
28 14 31 15 4 0 6 -31 5 -70 -1 -60 -4 -70 -19 -70 -10 0 -26 13 -35 30 -20
35 -32 38 -50 10 -16 -26 -39 -26 -47 0 -9 27 -17 25 -48 -10 -29 -32 -46 -37
-64 -19 -8 8 -4 21 13 46 29 43 30 53 5 53 -23 0 -71 -54 -71 -80 0 -24 -33
-34 -61 -20 -32 18 -58 88 -69 191 -5 52 -10 98 -10 103 0 5 -6 3 -14 -3 -8
-7 -34 -67 -57 -133 -45 -128 -56 -134 -59 -33 -2 76 -14 138 -27 142 -6 2
-28 -47 -55 -124 l-43 -128 -5 145 c-3 80 -7 143 -9 140 -7 -14 -5 -350 3
-347 5 2 23 48 41 103 17 55 35 106 40 113 15 25 28 -19 33 -116 3 -57 9 -92
15 -90 6 2 29 55 51 118 62 170 59 167 66 49 5 -67 13 -117 24 -137 21 -41 59
-52 99 -30 25 15 30 15 51 2 26 -17 62 -9 85 19 18 21 28 20 34 -4 7 -28 34
-25 61 7 l23 27 14 -30 c15 -31 51 -43 73 -25 6 6 22 8 34 4 32 -8 70 4 82 27
10 18 8 19 -19 14 -41 -8 -66 30 -58 87 7 51 15 60 63 66 22 2 55 8 76 13 32
7 37 5 42 -13 7 -27 0 -33 -18 -18 -8 7 -20 10 -26 6 -19 -12 -10 -51 20 -85
19 -23 29 -46 30 -67 0 -40 -6 -41 -42 -6 l-28 27 -21 -21 -21 -20 32 -37 c54
-61 100 -41 100 44 0 28 1 28 31 17 18 -7 41 -24 52 -39 27 -37 37 -35 37 5 1
22 8 37 25 50 l25 18 0 -30 c0 -50 47 -62 91 -24 14 12 17 12 22 -2 8 -19 36
-19 65 1 21 14 22 14 22 -5 0 -27 27 -27 55 -1 20 18 23 19 35 5 16 -19 43
-19 80 0 25 13 29 13 34 0 7 -20 55 -19 78 2 17 15 18 15 18 0 0 -23 8 -21 30
6 l19 22 16 -22 c19 -27 66 -31 85 -8 10 13 9 15 -8 15 -11 0 -32 15 -47 32
l-26 33 -20 -27 c-45 -61 -52 -17 -13 81 15 36 34 71 43 78 10 8 12 12 4 13
-7 0 -13 9 -13 19 0 30 -11 51 -26 51 -16 0 -34 -31 -34 -57 0 -12 -12 -23
-33 -31 -45 -16 -47 -16 -47 16 -1 26 -1 26 -15 8 -8 -11 -15 -28 -15 -37 0
-13 -42 -39 -64 -39 -1 0 1 27 2 60 3 48 1 60 -11 60 -8 0 -17 -7 -21 -15 -3
-9 0 -15 9 -15 19 0 20 -45 3 -100 -19 -61 -31 -48 -26 28 4 51 3 61 -4 42 -6
-14 -13 -63 -17 -110 -5 -68 -9 -85 -23 -88 -10 -2 -19 5 -23 18 -6 20 -8 20
-24 6 -22 -20 -37 -20 -45 -1 -13 34 31 65 49 35 8 -13 25 -3 25 16 0 31 -51
15 -97 -31 -45 -46 -61 -53 -80 -34 -8 8 -4 21 13 46 13 20 24 40 24 44 0 20
-40 7 -64 -22 -16 -18 -36 -31 -53 -32 l-28 -2 -3 137 c-1 81 -7 138 -12 138
-6 0 -10 -16 -10 -35 0 -32 -2 -35 -29 -35 -69 0 -82 31 -25 55 20 8 59 31 85
50 l49 35 0 -26 c0 -14 -7 -39 -16 -55 -8 -17 -14 -35 -12 -40 5 -14 119 92
141 130 20 34 15 38 -23 16 -14 -8 -38 -14 -54 -15 l-29 0 22 24 c12 13 39 56
60 96 35 67 40 71 50 52 6 -11 11 -38 11 -58 0 -22 4 -34 9 -28 12 13 38 100
46 154 l7 45 -32 -37 c-17 -21 -35 -38 -38 -38 -4 0 -7 50 -7 110 0 61 2 110
3 110 2 0 17 -14 33 -31 25 -26 29 -28 29 -12 0 25 -29 125 -40 136 -4 5 -10
-7 -14 -27 -10 -52 -22 -52 -45 0 -12 26 -37 69 -57 97 l-36 50 29 -5 c15 -3
37 -9 48 -13 18 -8 17 -5 -6 25 -14 18 -40 45 -58 58 l-32 25 11 -27 c20 -53
11 -55 -54 -11 -36 24 -81 48 -100 55 -42 13 -39 25 7 36 l32 7 -55 18 c-30
10 -64 18 -75 18 -18 1 -17 -2 8 -24 26 -25 38 -53 17 -40 -13 8 -163 9 -189
0 -29 -9 -27 11 5 40 23 22 24 25 8 24 -10 0 -40 -6 -67 -13z m172 -98 c59
-51 58 -53 -35 -53 -46 0 -84 2 -84 5 0 5 72 77 79 79 2 1 20 -13 40 -31z
m191 -37 c0 -10 7 -34 15 -54 19 -45 10 -52 -29 -22 -17 13 -52 33 -76 43
l-45 20 30 6 c17 4 44 11 60 15 44 13 45 13 45 -8z m-340 -11 c10 -6 3 -13
-25 -24 -22 -10 -57 -30 -77 -47 -35 -27 -38 -28 -38 -10 0 11 4 30 9 43 5 13
12 31 15 40 4 15 13 17 53 12 26 -4 55 -10 63 -14z m253 -55 c67 -33 130 -97
160 -163 33 -70 31 -208 -2 -277 -33 -67 -100 -131 -169 -163 -129 -59 -314
-12 -394 101 l-21 30 28 -19 c24 -16 49 -19 140 -20 60 0 113 3 116 8 3 4 21
1 40 -9 68 -34 209 -15 209 29 0 10 -10 23 -22 28 l-23 9 23 0 c27 1 40 27 25
50 -10 16 -20 17 -199 21 l-41 2 -6 50 c-7 57 -20 78 -49 78 -17 0 -19 5 -13
39 7 40 -11 71 -39 71 -19 0 -37 -25 -32 -41 17 -56 16 -67 -9 -73 -27 -7 -35
-21 -55 -94 l-11 -44 -42 5 c-86 10 -82 5 -81 93 0 57 6 92 21 125 76 170 280
245 446 164z m-403 -54 c0 -5 -7 -15 -17 -22 -9 -8 -29 -41 -44 -73 -26 -56
-29 -58 -37 -35 -5 13 -12 42 -15 64 l-6 40 47 16 c57 20 72 22 72 10z m595
-15 c38 -14 40 -16 36 -52 -1 -21 -7 -49 -12 -63 -10 -24 -11 -23 -35 30 -14
30 -35 64 -46 77 -21 21 -21 22 -2 22 10 0 37 -7 59 -14z m70 -188 l40 -43
-40 -42 c-22 -24 -43 -43 -45 -43 -3 0 -5 38 -5 85 0 47 2 85 5 85 2 0 22 -19
45 -42z m-321 -163 c16 -12 17 -15 4 -15 -9 0 -23 -3 -32 -6 -12 -4 -16 0 -16
15 0 24 17 27 44 6z m281 -22 c4 -21 10 -48 15 -60 8 -20 6 -23 -13 -23 -12
-1 -33 -7 -47 -15 -14 -8 -33 -14 -43 -15 -14 0 -11 9 18 51 19 29 38 62 41
75 9 35 22 29 29 -13z m-655 17 c0 -5 -2 -10 -4 -10 -3 0 -8 5 -11 10 -3 6 -1
10 4 10 6 0 11 -4 11 -10z m140 0 c0 -5 -10 -10 -22 -10 -19 0 -20 2 -8 10 19
13 30 13 30 0z m317 -26 c-3 -3 -12 -4 -19 -1 -8 3 -5 6 6 6 11 1 17 -2 13 -5z
m68 -188 c-15 -40 -19 -43 -43 -37 -19 5 -28 15 -30 32 -2 19 7 29 40 50 51
30 58 20 33 -45z m-96 -3 c-7 -10 -14 -20 -16 -22 -1 -1 -7 0 -14 4 -8 6 -4
12 12 21 32 18 34 17 18 -3z m-49 -15 c0 -4 -18 -22 -40 -39 -56 -45 -52 -56
15 -49 59 7 70 -3 37 -33 -16 -14 -102 -47 -124 -47 -5 0 -8 9 -8 21 0 14 -5
19 -18 17 -21 -3 -52 18 -52 36 0 7 18 10 52 8 l53 -3 -47 44 c-27 25 -48 46
-48 48 0 2 41 4 90 4 50 0 90 -3 90 -7z m782 -133 c0 -5 -5 -11 -11 -13 -6 -2
-11 4 -11 13 0 9 5 15 11 13 6 -2 11 -8 11 -13z m-613 -137 c1 -27 -3 -48 -8
-48 -17 0 -76 47 -88 70 -7 14 -12 38 -11 54 3 24 10 31 48 45 l45 17 7 -46
c3 -25 7 -66 7 -92z m567 -65 c-7 -18 -36 -16 -58 4 -11 10 -18 30 -18 52 0
60 9 78 43 88 l32 9 3 -70 c2 -38 1 -75 -2 -83z m44 145 c-1 -7 -7 -26 -15
-43 l-13 -30 -1 43 c-1 31 3 42 14 42 8 0 15 -6 15 -12z m-147 -80 c-3 -29 -6
-59 -8 -65 -7 -22 -42 -14 -64 13 -17 21 -18 29 -8 51 9 21 54 51 78 53 3 0 4
-24 2 -52z m-337 -33 c-7 -18 -26 -20 -26 -2 0 18 24 41 28 27 2 -6 1 -17 -2
-25z m-716 11 c0 -16 -18 -31 -27 -22 -8 8 5 36 17 36 5 0 10 -6 10 -14z"/>
</g>
</svg>
